# xmcd
#
# Track frame offsets: 
#        187
#        24362
#        42607
#        70257
#        95505
#        121347
#        146747
#        167165
#        195112
#        217552
#        257297
#
# Disc length: 3795 seconds
#
# Revision: 6
# Processed by: cddbd v1.5.2PL0 Copyright (c) Steve Scherf et al.
# Submitted via: ExactAudioCopy v1.0b3
#
DISCID=8d0ed10b
DTITLE=Scott Hamilton - The Man Plays Requested Standards
DYEAR=1993
DGENRE=Jazz
TTITLE0=Autumn Leaves
TTITLE1=Stardust
TTITLE2=It Could Happen To You
TTITLE3=It Never Entered My Mind
TTITLE4=Bernie's Tune
TTITLE5=East Of The Sun (And West Of The Moon)
TTITLE6=Time After Time
TTITLE7=Setagaya Serenade
TTITLE8=That's All
TTITLE9=All The Things You Are
TTITLE10=Indiana
EXTD=YEAR: 1993
EXTT0=
EXTT1=
EXTT2=
EXTT3=
EXTT4=
EXTT5=
EXTT6=
EXTT7=
EXTT8=
EXTT9=
EXTT10=
PLAYORDER=
